<svg width="60" height="60" viewBox="0 0 60 60" fill="none" xmlns="http://www.w3.org/2000/svg">
<path d="M22.379 37.1455C21.7226 37.6063 20.9881 37.9089 20.1863 38.0498C19.3099 38.263 18.3767 38.3696 17.3903 38.3696C14.5376 38.3696 12.2916 37.5203 10.6452 35.8183C9.03792 34.1162 8.23249 31.7781 8.23249 28.8038C8.23249 25.8296 9.03792 23.4708 10.6452 21.7344C12.3626 19.9979 14.6121 19.1314 17.3903 19.1314C20.133 19.1314 22.379 20.0014 24.1354 21.7344C25.7817 23.5052 26.6013 25.8605 26.6013 28.8038C26.6013 30.0795 26.4381 31.2486 26.1081 32.3111C25.7782 33.4079 25.2672 34.3501 24.5718 35.1272L26.6546 37.0389L25.6114 38.0498C25.2459 38.404 24.8627 38.5553 24.4582 38.5003C24.0573 38.4487 23.7273 38.3146 23.4719 38.1014L22.379 37.1455ZM19.6398 34.6458L17.6671 32.7856L18.3235 32.0944C18.6144 31.7747 19.0083 31.5821 19.5015 31.5099C19.9946 31.4377 20.4062 31.5099 20.7362 31.7231L21.8326 32.5724C22.0881 32.1116 22.3081 31.5443 22.489 30.8703C22.5245 30.5506 22.5706 30.2239 22.6274 29.8869C22.6806 29.55 22.709 29.1889 22.709 28.797C22.709 26.813 22.2335 25.2381 21.2826 24.0656C20.3317 22.9688 19.0331 22.4186 17.3903 22.4186C15.7085 22.4186 14.4098 22.9688 13.498 24.0656C12.5825 25.1625 12.1284 26.7408 12.1284 28.797C12.1284 30.8532 12.5861 32.4108 13.498 33.4733C14.4098 34.5701 15.7085 35.1203 17.3903 35.1203C17.9403 35.1203 18.3412 35.0859 18.5967 35.0137C18.9976 34.914 19.3453 34.7902 19.6398 34.6458Z" fill="url(#paint0_linear_2_9495)"/>
<path d="M32.2039 37.6545C31.3381 37.7061 30.4014 37.6923 29.3938 37.6167C28.3861 37.541 27.8822 36.9187 27.8822 35.7496V24.5574H29.298C29.6386 24.5574 29.9402 24.6846 30.2027 24.9391C30.4653 25.1935 30.5966 25.4961 30.5966 25.8537V27.5661H32.2074V28.099C32.2074 28.4807 32.0762 28.7901 31.8136 29.0308C31.551 29.2715 31.2388 29.3919 30.8698 29.3919H30.593V35.0275C30.593 35.4607 30.8556 35.6739 31.3772 35.6739H32.2039V37.6545Z" fill="url(#paint1_linear_2_9495)"/>
<path d="M39.7048 34.5324H41.6704C41.383 35.5983 40.8331 36.4098 40.0205 36.9702C39.208 37.5548 38.1861 37.847 36.9549 37.847C35.4612 37.847 34.2974 37.376 33.46 36.4373C32.6226 35.5226 32.2039 34.216 32.2039 32.5174C32.2039 30.8945 32.6084 29.6222 33.421 28.711C34.2583 27.7723 35.4257 27.3013 36.9159 27.3013C38.4877 27.3013 39.7048 27.7586 40.5705 28.6732C41.4079 29.6119 41.8266 30.9185 41.8266 32.5931C41.8266 32.6962 41.8266 32.7822 41.8266 32.8613C41.8266 32.9369 41.8266 32.9885 41.8266 33.0126C41.8266 33.1398 41.8124 33.2292 41.7875 33.2808H34.9928C35.0176 34.0682 35.2163 34.6527 35.5818 35.0309C35.9224 35.4367 36.4334 35.6395 37.1146 35.6395C37.5581 35.6395 37.9413 35.5501 38.2536 35.3748C38.3316 35.3507 38.4026 35.306 38.47 35.2407C38.5339 35.1788 38.6084 35.1066 38.6864 35.0309C38.7113 34.9553 38.8106 34.8521 38.9809 34.7249C39.1512 34.5943 39.3925 34.5324 39.7048 34.5324ZM34.9928 31.5615H38.9987C38.9455 30.8773 38.7645 30.3684 38.4487 30.0383C38.1081 29.6841 37.622 29.5053 36.994 29.5053C36.4192 29.5053 35.9473 29.6841 35.5782 30.0383C35.2128 30.3959 35.0176 30.9014 34.9928 31.5615Z" fill="url(#paint2_linear_2_9495)"/>
<path d="M49.5296 34.5324H51.4953C51.2079 35.5983 50.6579 36.4098 49.8454 36.9702C49.0329 37.5548 48.011 37.847 46.7798 37.847C45.286 37.847 44.1222 37.376 43.2848 36.4373C42.4475 35.5226 42.0288 34.216 42.0288 32.5174C42.0288 30.8945 42.4333 29.6222 43.2458 28.711C44.0832 27.7723 45.2505 27.3013 46.7407 27.3013C48.3126 27.3013 49.5296 27.7586 50.3953 28.6732C50.8673 29.2303 51.2079 29.8801 51.4172 30.616H48.6674C48.5361 30.3615 48.4048 30.1724 48.2735 30.0452C47.9329 29.691 47.4504 29.5122 46.8188 29.5122C46.2404 29.5122 45.7721 29.691 45.4031 30.0452C44.9312 30.5541 44.697 31.3896 44.697 32.5587C44.697 33.7278 44.9312 34.553 45.4031 35.0344C45.7437 35.4401 46.2546 35.643 46.9359 35.643C47.3794 35.643 47.7626 35.5536 48.0748 35.3782C48.1529 35.3542 48.2239 35.3095 48.2913 35.2441C48.3552 35.1822 48.4297 35.11 48.5077 35.0344C48.5609 34.9587 48.6638 34.8556 48.8235 34.7284C48.9796 34.5942 49.2138 34.5324 49.5296 34.5324Z" fill="url(#paint3_linear_2_9495)"/>
<path d="M2.65832 19.3791C2.65832 19.3791 -4.09029 30.6813 3.91791 41.4128C3.91791 41.4093 -1.2766 30.867 2.65832 19.3791Z" fill="url(#paint4_linear_2_9495)"/>
<path d="M57.0021 39.9204C57.0021 39.9204 64.6519 28.9345 55.5118 18.5469C55.5154 18.5469 61.4515 28.7626 57.0021 39.9204Z" fill="url(#paint5_linear_2_9495)"/>
<path d="M54.309 45.7039C54.309 45.7039 47.9932 54.1075 38.1471 53.468C38.1471 53.468 29.0319 53.743 19.1999 48.8364L20.4701 45.5905C20.4701 45.5905 30.1957 50.7 37.2139 50.8238C37.2139 50.8238 47.3688 52.4846 54.309 45.7039Z" fill="url(#paint6_linear_2_9495)"/>
<path d="M49.1499 52.2575C49.1499 52.2575 41.3724 58.8318 29.9615 57.0645C29.9615 57.0645 18.3377 55.6031 6.63939 46.1233L8.11543 43.9949C8.11543 43.9949 19.5547 52.5223 26.9101 54.0386C26.9065 54.0421 37.3949 58.3092 49.1499 52.2575Z" fill="url(#paint7_linear_2_9495)"/>
<path d="M40.8578 56.8891C40.8578 56.8891 34.5634 59.6261 28.4889 59.0966C28.4889 59.0966 20.0088 57.9516 16.0349 55.2971L16.67 53.908C16.67 53.908 24.1318 57.539 29.9614 58.0823C29.9579 58.0857 37.2919 58.2817 40.8578 56.8891Z" fill="url(#paint8_linear_2_9495)"/>
<path d="M32.2571 59.915C32.2571 59.915 19.9946 60.9913 12.1568 55.4829L12.8948 54.5717C12.8948 54.5717 18.0112 59.2583 32.2571 59.915Z" fill="url(#paint9_linear_2_9495)"/>
<path d="M56.4201 40.7834C56.4201 40.7834 54.4012 48.6953 43.2919 49.5721C43.2919 49.5721 35.5391 50.0535 25.6007 46.0615L27.2897 42.7159C27.2897 42.7159 38.7928 48.1349 48.8589 45.6317C48.8589 45.6282 52.7371 44.9337 56.4201 40.7834Z" fill="url(#paint10_linear_2_9495)"/>
<path d="M24.3624 44.7686C25.1933 44.7686 25.8669 44.1159 25.8669 43.3107C25.8669 42.5055 25.1933 41.8528 24.3624 41.8528C23.5316 41.8528 22.858 42.5055 22.858 43.3107C22.858 44.1159 23.5316 44.7686 24.3624 44.7686Z" fill="url(#paint11_linear_2_9495)"/>
<path d="M17.6351 47.9595C18.5012 47.9595 19.2034 47.279 19.2034 46.4397C19.2034 45.6003 18.5012 44.9199 17.6351 44.9199C16.769 44.9199 16.0668 45.6003 16.0668 46.4397C16.0668 47.279 16.769 47.9595 17.6351 47.9595Z" fill="url(#paint12_linear_2_9495)"/>
<path d="M5.53232 45.3016C6.40826 45.3016 7.11835 44.6134 7.11835 43.7646C7.11835 42.9157 6.40826 42.2276 5.53232 42.2276C4.65638 42.2276 3.9463 42.9157 3.9463 43.7646C3.9463 44.6134 4.65638 45.3016 5.53232 45.3016Z" fill="url(#paint13_linear_2_9495)"/>
<path d="M15.3324 54.7093C15.7204 54.7093 16.0349 54.4044 16.0349 54.0284C16.0349 53.6524 15.7204 53.3476 15.3324 53.3476C14.9444 53.3476 14.6298 53.6524 14.6298 54.0284C14.6298 54.4044 14.9444 54.7093 15.3324 54.7093Z" fill="url(#paint14_linear_2_9495)"/>
<path d="M11.6387 55.0702C12.013 55.0702 12.3164 54.7762 12.3164 54.4135C12.3164 54.0508 12.013 53.7567 11.6387 53.7567C11.2644 53.7567 10.961 54.0508 10.961 54.4135C10.961 54.7762 11.2644 55.0702 11.6387 55.0702Z" fill="url(#paint15_linear_2_9495)"/>
<path d="M5.19533 13.9291C5.19533 13.9291 11.6459 5.62175 21.4814 6.41259C21.4814 6.41259 30.6002 6.27506 40.3505 11.3296L39.0306 14.5549C39.0306 14.5549 29.3903 9.3009 22.372 9.06709C22.3684 9.06709 12.242 7.25502 5.19533 13.9291Z" fill="url(#paint16_linear_2_9495)"/>
<path d="M10.4573 7.45441C10.4573 7.45441 18.3378 1.00043 29.7203 2.93628C29.7203 2.93628 41.3192 4.57298 52.8649 14.2282L51.357 16.3325C51.357 16.3325 40.0561 7.63321 32.7256 6.00682C32.7256 6.00682 22.3082 1.57809 10.4573 7.45441Z" fill="url(#paint17_linear_2_9495)"/>
<path d="M18.8238 2.94664C18.8238 2.94664 25.1644 0.305906 31.2282 0.924829C31.2282 0.924829 39.6905 2.19706 43.6184 4.91L42.9619 6.28882C42.9619 6.28882 35.5569 2.54434 29.7415 1.91167C29.7415 1.91511 22.411 1.60908 18.8238 2.94664Z" fill="url(#paint18_linear_2_9495)"/>
<path d="M27.4707 0.0514552C27.4707 0.0514552 39.7473 -0.839106 47.4965 4.78965L46.7443 5.69053C46.7443 5.68709 41.7059 0.921385 27.4707 0.0514552Z" fill="url(#paint19_linear_2_9495)"/>
<path d="M3.0026 18.8186C3.0026 18.8186 5.14924 10.9377 16.2692 10.2293C16.2692 10.2293 24.029 9.86486 33.9036 14.0082L32.1614 17.3263C32.1614 17.3263 20.747 11.7319 10.6418 14.0839C10.6382 14.0839 6.74946 14.7234 3.0026 18.8186Z" fill="url(#paint20_linear_2_9495)"/>
<path d="M35.0957 18.2306C35.9266 18.2306 36.6001 17.5779 36.6001 16.7727C36.6001 15.9675 35.9266 15.3148 35.0957 15.3148C34.2648 15.3148 33.5913 15.9675 33.5913 16.7727C33.5913 17.5779 34.2648 18.2306 35.0957 18.2306Z" fill="url(#paint21_linear_2_9495)"/>
<path d="M41.8762 15.2631C42.7424 15.2631 43.4445 14.5827 43.4445 13.7433C43.4445 12.904 42.7424 12.2235 41.8762 12.2235C41.0101 12.2235 40.3079 12.904 40.3079 13.7433C40.3079 14.5827 41.0101 15.2631 41.8762 15.2631Z" fill="url(#paint22_linear_2_9495)"/>
<path d="M53.9329 18.1411C54.8089 18.1411 55.5189 17.453 55.5189 16.6041C55.5189 15.7552 54.8089 15.0671 53.9329 15.0671C53.057 15.0671 52.3469 15.7552 52.3469 16.6041C52.3469 17.453 53.057 18.1411 53.9329 18.1411Z" fill="url(#paint23_linear_2_9495)"/>
<path d="M44.2997 6.87336C44.6877 6.87336 45.0022 6.56855 45.0022 6.19254C45.0022 5.81654 44.6877 5.51173 44.2997 5.51173C43.9117 5.51173 43.5971 5.81654 43.5971 6.19254C43.5971 6.56855 43.9117 6.87336 44.2997 6.87336Z" fill="url(#paint24_linear_2_9495)"/>
<path d="M47.9968 6.52253C48.3711 6.52253 48.6745 6.2285 48.6745 5.86579C48.6745 5.50308 48.3711 5.20904 47.9968 5.20904C47.6226 5.20904 47.3191 5.50308 47.3191 5.86579C47.3191 6.2285 47.6226 6.52253 47.9968 6.52253Z" fill="url(#paint25_linear_2_9495)"/>
<defs>
<linearGradient id="paint0_linear_2_9495" x1="18.7119" y1="-1.83051" x2="47.9662" y2="51.9845" gradientUnits="userSpaceOnUse">
<stop stop-color="#02D7F8"/>
<stop offset="1" stop-color="#0876FC"/>
</linearGradient>
<linearGradient id="paint1_linear_2_9495" x1="18.7119" y1="-1.83051" x2="47.9662" y2="51.9845" gradientUnits="userSpaceOnUse">
<stop stop-color="#02D7F8"/>
<stop offset="1" stop-color="#0876FC"/>
</linearGradient>
<linearGradient id="paint2_linear_2_9495" x1="18.7119" y1="-1.83051" x2="47.9662" y2="51.9845" gradientUnits="userSpaceOnUse">
<stop stop-color="#02D7F8"/>
<stop offset="1" stop-color="#0876FC"/>
</linearGradient>
<linearGradient id="paint3_linear_2_9495" x1="18.7119" y1="-1.83051" x2="47.9662" y2="51.9845" gradientUnits="userSpaceOnUse">
<stop stop-color="#02D7F8"/>
<stop offset="1" stop-color="#0876FC"/>
</linearGradient>
<linearGradient id="paint4_linear_2_9495" x1="18.7119" y1="-1.83051" x2="47.9662" y2="51.9845" gradientUnits="userSpaceOnUse">
<stop stop-color="#02D7F8"/>
<stop offset="1" stop-color="#0876FC"/>
</linearGradient>
<linearGradient id="paint5_linear_2_9495" x1="18.7119" y1="-1.83051" x2="47.9662" y2="51.9845" gradientUnits="userSpaceOnUse">
<stop stop-color="#02D7F8"/>
<stop offset="1" stop-color="#0876FC"/>
</linearGradient>
<linearGradient id="paint6_linear_2_9495" x1="18.7119" y1="-1.83051" x2="47.9662" y2="51.9845" gradientUnits="userSpaceOnUse">
<stop stop-color="#02D7F8"/>
<stop offset="1" stop-color="#0876FC"/>
</linearGradient>
<linearGradient id="paint7_linear_2_9495" x1="18.7119" y1="-1.83051" x2="47.9662" y2="51.9845" gradientUnits="userSpaceOnUse">
<stop stop-color="#02D7F8"/>
<stop offset="1" stop-color="#0876FC"/>
</linearGradient>
<linearGradient id="paint8_linear_2_9495" x1="18.7119" y1="-1.83051" x2="47.9662" y2="51.9845" gradientUnits="userSpaceOnUse">
<stop stop-color="#02D7F8"/>
<stop offset="1" stop-color="#0876FC"/>
</linearGradient>
<linearGradient id="paint9_linear_2_9495" x1="18.7119" y1="-1.83051" x2="47.9662" y2="51.9845" gradientUnits="userSpaceOnUse">
<stop stop-color="#02D7F8"/>
<stop offset="1" stop-color="#0876FC"/>
</linearGradient>
<linearGradient id="paint10_linear_2_9495" x1="18.7119" y1="-1.83051" x2="47.9662" y2="51.9845" gradientUnits="userSpaceOnUse">
<stop stop-color="#02D7F8"/>
<stop offset="1" stop-color="#0876FC"/>
</linearGradient>
<linearGradient id="paint11_linear_2_9495" x1="18.7119" y1="-1.83051" x2="47.9662" y2="51.9845" gradientUnits="userSpaceOnUse">
<stop stop-color="#02D7F8"/>
<stop offset="1" stop-color="#0876FC"/>
</linearGradient>
<linearGradient id="paint12_linear_2_9495" x1="18.7119" y1="-1.83051" x2="47.9662" y2="51.9845" gradientUnits="userSpaceOnUse">
<stop stop-color="#02D7F8"/>
<stop offset="1" stop-color="#0876FC"/>
</linearGradient>
<linearGradient id="paint13_linear_2_9495" x1="18.7119" y1="-1.83051" x2="47.9662" y2="51.9845" gradientUnits="userSpaceOnUse">
<stop stop-color="#02D7F8"/>
<stop offset="1" stop-color="#0876FC"/>
</linearGradient>
<linearGradient id="paint14_linear_2_9495" x1="18.7119" y1="-1.83051" x2="47.9662" y2="51.9845" gradientUnits="userSpaceOnUse">
<stop stop-color="#02D7F8"/>
<stop offset="1" stop-color="#0876FC"/>
</linearGradient>
<linearGradient id="paint15_linear_2_9495" x1="18.7119" y1="-1.83051" x2="47.9662" y2="51.9845" gradientUnits="userSpaceOnUse">
<stop stop-color="#02D7F8"/>
<stop offset="1" stop-color="#0876FC"/>
</linearGradient>
<linearGradient id="paint16_linear_2_9495" x1="18.7119" y1="-1.83051" x2="47.9662" y2="51.9845" gradientUnits="userSpaceOnUse">
<stop stop-color="#02D7F8"/>
<stop offset="1" stop-color="#0876FC"/>
</linearGradient>
<linearGradient id="paint17_linear_2_9495" x1="18.7119" y1="-1.83051" x2="47.9662" y2="51.9845" gradientUnits="userSpaceOnUse">
<stop stop-color="#02D7F8"/>
<stop offset="1" stop-color="#0876FC"/>
</linearGradient>
<linearGradient id="paint18_linear_2_9495" x1="18.7119" y1="-1.83051" x2="47.9662" y2="51.9845" gradientUnits="userSpaceOnUse">
<stop stop-color="#02D7F8"/>
<stop offset="1" stop-color="#0876FC"/>
</linearGradient>
<linearGradient id="paint19_linear_2_9495" x1="18.7119" y1="-1.83051" x2="47.9662" y2="51.9845" gradientUnits="userSpaceOnUse">
<stop stop-color="#02D7F8"/>
<stop offset="1" stop-color="#0876FC"/>
</linearGradient>
<linearGradient id="paint20_linear_2_9495" x1="18.7119" y1="-1.83051" x2="47.9662" y2="51.9845" gradientUnits="userSpaceOnUse">
<stop stop-color="#02D7F8"/>
<stop offset="1" stop-color="#0876FC"/>
</linearGradient>
<linearGradient id="paint21_linear_2_9495" x1="18.7119" y1="-1.83051" x2="47.9662" y2="51.9845" gradientUnits="userSpaceOnUse">
<stop stop-color="#02D7F8"/>
<stop offset="1" stop-color="#0876FC"/>
</linearGradient>
<linearGradient id="paint22_linear_2_9495" x1="18.7119" y1="-1.83051" x2="47.9662" y2="51.9845" gradientUnits="userSpaceOnUse">
<stop stop-color="#02D7F8"/>
<stop offset="1" stop-color="#0876FC"/>
</linearGradient>
<linearGradient id="paint23_linear_2_9495" x1="18.7119" y1="-1.83051" x2="47.9662" y2="51.9845" gradientUnits="userSpaceOnUse">
<stop stop-color="#02D7F8"/>
<stop offset="1" stop-color="#0876FC"/>
</linearGradient>
<linearGradient id="paint24_linear_2_9495" x1="18.7119" y1="-1.83051" x2="47.9662" y2="51.9845" gradientUnits="userSpaceOnUse">
<stop stop-color="#02D7F8"/>
<stop offset="1" stop-color="#0876FC"/>
</linearGradient>
<linearGradient id="paint25_linear_2_9495" x1="18.7119" y1="-1.83051" x2="47.9662" y2="51.9845" gradientUnits="userSpaceOnUse">
<stop stop-color="#02D7F8"/>
<stop offset="1" stop-color="#0876FC"/>
</linearGradient>
</defs>
</svg>
