<svg width="118" height="22" viewBox="0 0 118 22" fill="none" xmlns="http://www.w3.org/2000/svg">
<path d="M45.4398 16.4335C45.5218 17.1579 46.0954 18.0349 47.1607 18.0349H47.7753C48.0211 18.0349 48.226 17.8442 48.226 17.6154V4.99499C48.226 4.76622 48.0211 4.61371 47.7753 4.61371H45.8496C45.6037 4.61371 45.4398 4.76622 45.3989 4.99499V6.02445C44.2107 4.68997 42.3669 4.11804 40.5232 4.11804C36.303 4.11804 32.9023 7.28269 32.9023 11.2099C32.9433 15.1371 36.344 18.3018 40.5641 18.3018C42.4079 18.3018 44.4155 17.6536 45.4398 16.4335ZM40.5641 15.8234C37.901 15.8234 35.7294 13.7645 35.7294 11.2099C35.7294 8.6553 37.901 6.59638 40.5641 6.59638C43.2273 6.59638 45.3989 8.6553 45.3989 11.2099C45.3989 13.7645 43.2273 15.8234 40.5641 15.8234Z" fill="#2E3C54"/>
<path d="M76.5786 16.4335C76.6605 17.1579 77.2341 18.0349 78.2994 18.0349H78.914C79.1598 18.0349 79.3647 17.8442 79.3647 17.6154V4.99499C79.3647 4.76622 79.1598 4.61371 78.914 4.61371H77.0293C76.7834 4.61371 76.6195 4.76622 76.5786 4.99499V6.02445C75.3904 4.68997 73.5466 4.11804 71.7029 4.11804C67.4827 4.11804 64.082 7.28269 64.082 11.2099C64.082 15.1371 67.4827 18.3018 71.7029 18.3018C73.5876 18.3018 75.5952 17.6536 76.5786 16.4335ZM71.7438 15.8234C69.0806 15.8234 66.9091 13.7645 66.9091 11.2099C66.9091 8.6553 69.0806 6.59638 71.7438 6.59638C74.407 6.59638 76.5786 8.6553 76.5786 11.2099C76.5786 13.7645 74.407 15.8234 71.7438 15.8234Z" fill="#2E3C54"/>
<path d="M111.448 16.4335C111.53 17.1579 112.103 18.0349 113.168 18.0349H113.783C114.029 18.0349 114.234 17.8442 114.234 17.6154V4.99499C114.234 4.76622 114.029 4.61371 113.783 4.61371H111.857C111.612 4.61371 111.448 4.76622 111.407 4.99499V6.02445C110.218 4.68997 108.375 4.11804 106.531 4.11804C102.311 4.11804 98.9102 7.28269 98.9102 11.2099C98.9102 15.1371 102.311 18.3018 106.531 18.3018C108.416 18.3018 110.423 17.6536 111.448 16.4335ZM106.572 15.8234C103.909 15.8234 101.737 13.7645 101.737 11.2099C101.737 8.6553 103.909 6.59638 106.572 6.59638C109.235 6.59638 111.407 8.6553 111.407 11.2099C111.407 13.7645 109.235 15.8234 106.572 15.8234Z" fill="#2E3C54"/>
<path d="M96.5328 16.8528V10.3329C96.5328 6.63446 94.0335 4.15613 90.0592 4.15613C88.1745 4.15613 86.4127 5.18559 86.0439 6.06254C85.921 5.37623 85.5523 4.6518 84.3231 4.6518H83.7085C83.4627 4.6518 83.2578 4.84244 83.2578 5.07121V16.4716V17.6917V17.7298C83.2578 17.9586 83.4627 18.1111 83.7085 18.1111H85.0196H85.6342C85.6752 18.1111 85.6752 18.1111 85.7161 18.1111H85.7571H85.7981C85.7981 18.1111 85.8391 18.1111 85.8391 18.0729C85.8391 18.0729 85.8391 18.0729 85.88 18.0729L85.921 18.0348L85.962 17.9967C86.003 17.9204 86.0439 17.8442 86.0439 17.7679V17.7298V16.9291V16.7003V10.2185C86.0439 8.23585 87.7648 6.63446 89.8953 6.63446C92.0259 6.63446 93.7467 8.23585 93.7467 10.2185V16.4716V17.6535V17.6917C93.7467 17.9204 93.9516 18.0729 94.1974 18.0729H95.5085H96.1231C96.1641 18.0729 96.1641 18.0729 96.205 18.0729H96.246H96.287C96.287 18.0729 96.328 18.0729 96.328 18.0348C96.328 18.0348 96.328 18.0348 96.3689 18.0348L96.4099 17.9967L96.4509 17.9586C96.4918 17.8823 96.5328 17.806 96.5328 17.7298V17.6917V16.8528Z" fill="#2E3C54"/>
<path d="M52.7743 14.6033C54.0444 15.4421 55.4375 15.8234 56.7895 15.8234C58.0597 15.8234 59.3708 15.2133 59.3708 14.1457C59.3708 12.6969 56.5027 12.5062 54.7 11.9343C52.8972 11.3624 51.3402 10.1804 51.3402 8.27398C51.3402 5.3381 54.1263 4.15613 56.7486 4.15613C58.3875 4.15613 60.1083 4.6518 61.2145 5.37623C61.5833 5.64313 61.3784 5.94816 61.3784 5.94816L60.3132 7.3589C60.1902 7.51141 59.9854 7.66393 59.6986 7.47329C59.4118 7.32077 58.3465 6.59634 56.7486 6.59634C55.1507 6.59634 54.2083 7.28264 54.2083 8.12147C54.2083 9.15093 55.4375 9.45596 56.9125 9.79911C59.4527 10.4473 62.2388 11.2099 62.2388 14.1076C62.2388 16.7003 59.6576 18.2636 56.7895 18.2636C54.618 18.2636 52.7743 17.6917 51.2173 16.6241C50.8895 16.319 51.1354 16.0521 51.1354 16.0521L52.2007 14.6414C52.4055 14.4508 52.6513 14.527 52.7743 14.6033Z" fill="#2E3C54"/>
<mask id="mask0_2_9140" style="mask-type:luminance" maskUnits="userSpaceOnUse" x="3" y="0" width="25" height="22">
<path d="M20.9369 5.56677C20.9369 8.23575 18.6015 10.4091 15.7334 10.4091C12.8654 10.4091 10.5299 8.23575 10.5299 5.56677C10.5299 2.8978 12.8654 0.724487 15.7334 0.724487C18.6424 0.724487 20.9369 2.85967 20.9369 5.56677ZM8.973 11.591C6.10495 11.591 3.76953 13.7643 3.76953 16.4333C3.76953 19.1023 6.10495 21.2756 8.973 21.2756C11.8411 21.2756 14.1765 19.1023 14.1765 16.4333C14.1765 13.7643 11.882 11.591 8.973 11.591ZM22.4938 11.591C19.6258 11.591 17.2904 13.7643 17.2904 16.4333C17.2904 19.1023 19.6258 21.2756 22.4938 21.2756C25.3619 21.2756 27.6973 19.1023 27.6973 16.4333C27.6973 13.7643 25.4029 11.591 22.4938 11.591Z" fill="white"/>
</mask>
<g mask="url(#mask0_2_9140)">
<path d="M15.7322 0.495972C22.9843 0.495972 28.8433 5.94831 28.8433 12.697C28.8433 19.4457 22.9843 24.8981 15.7322 24.8981C8.48012 24.8981 2.62109 19.4457 2.62109 12.697C2.66207 5.94831 8.52109 0.495972 15.7322 0.495972Z" fill="url(#paint0_radial_2_9140)"/>
</g>
<defs>
<radialGradient id="paint0_radial_2_9140" cx="0" cy="0" r="1" gradientUnits="userSpaceOnUse" gradientTransform="translate(15.7477 12.6863) rotate(-90) scale(12.1962 13.1059)">
<stop stop-color="#FFB900"/>
<stop offset="0.6" stop-color="#F95D8F"/>
<stop offset="0.9991" stop-color="#F95353"/>
</radialGradient>
</defs>
</svg>
