<svg width="33" height="36" viewBox="0 0 33 36" fill="none" xmlns="http://www.w3.org/2000/svg">
<path d="M24.8242 17.2072C25.0799 17.1764 25.325 17.1757 25.5499 17.2072C25.6802 16.908 25.7026 16.393 25.5856 15.8324C25.4112 14.9985 25.1759 14.494 24.689 14.5725C24.2022 14.6509 24.184 15.255 24.3584 16.0888C24.4565 16.5576 24.6302 16.9592 24.8242 17.2072Z" fill="black"/>
<path d="M20.6379 17.867C20.9867 18.0198 21.2004 18.1214 21.2844 18.0331C21.3384 17.9777 21.3223 17.8726 21.2389 17.7367C21.0673 17.4557 20.7129 17.1712 20.3381 17.0107C19.5704 16.68 18.6549 16.79 17.9488 17.298C17.7156 17.469 17.4949 17.7059 17.5265 17.8495C17.537 17.8958 17.5713 17.9308 17.6532 17.9427C17.8452 17.9644 18.5169 17.6253 19.2909 17.5776C19.8373 17.544 20.2898 17.7143 20.6379 17.867Z" fill="black"/>
<path d="M19.938 18.267C19.4841 18.3385 19.234 18.4885 19.0729 18.6279C18.9356 18.7477 18.8509 18.8802 18.8516 18.9734L18.8866 19.0561L18.9615 19.0848C19.0638 19.0848 19.2936 18.993 19.2936 18.993C19.9254 18.7667 20.3421 18.794 20.7547 18.8409C20.9831 18.8669 21.0909 18.8809 21.1407 18.8024C21.1554 18.78 21.1736 18.7316 21.1281 18.6573C21.0216 18.485 20.5635 18.1935 19.9387 18.2677L19.938 18.267Z" fill="black"/>
<path d="M23.4125 19.7358C23.7207 19.8872 24.0597 19.8276 24.1704 19.6027C24.2811 19.3778 24.1207 19.0729 23.8124 18.9216C23.5042 18.7702 23.1652 18.8298 23.0545 19.0547C22.9439 19.2797 23.1043 19.5845 23.4125 19.7358Z" fill="black"/>
<path d="M25.3935 18.004C25.1434 17.9997 24.9354 18.2744 24.9298 18.6185C24.9242 18.9619 25.1224 19.2436 25.3725 19.2478C25.6226 19.252 25.8306 18.9773 25.8362 18.6339C25.8418 18.2906 25.6436 18.0089 25.3935 18.004Z" fill="black"/>
<path d="M8.5753 24.1968C8.51296 24.119 8.41069 24.1428 8.31192 24.1653C8.24258 24.1814 8.16413 24.1996 8.07867 24.1982C7.89445 24.1947 7.73824 24.1162 7.65069 23.9817C7.53651 23.8065 7.54352 23.5451 7.6689 23.2459L7.72774 23.1121C7.92877 22.6615 8.26429 21.9068 7.88744 21.1885C7.60376 20.6476 7.14005 20.3105 6.58318 20.2397C6.04873 20.1718 5.49817 20.3701 5.14724 20.7576C4.59317 21.3686 4.50701 22.2004 4.61418 22.4947C4.65341 22.6026 4.71505 22.632 4.75918 22.6384C4.85374 22.651 4.99243 22.5823 5.07999 22.3476L5.10521 22.2712C5.14443 22.1471 5.21658 21.9159 5.33496 21.7302C5.47785 21.5067 5.7006 21.3525 5.96257 21.2964C6.22875 21.2397 6.50123 21.2901 6.72888 21.4394C7.11694 21.6938 7.26613 22.1689 7.10082 22.6229C7.01537 22.8577 6.87598 23.3062 6.9068 23.6747C6.96914 24.421 7.42794 24.7209 7.83981 24.7525C8.24048 24.7679 8.52066 24.5423 8.59141 24.3776C8.63343 24.2802 8.59771 24.2213 8.5753 24.1954V24.1968Z" fill="black"/>
<path d="M31.7091 22.8322C31.6936 22.7782 31.5942 22.4145 31.4576 21.9766L31.1795 21.2303C31.7273 20.4097 31.7371 19.676 31.6642 19.2605C31.5865 18.7455 31.3721 18.3061 30.9399 17.8527C30.5078 17.3987 29.6245 16.9341 28.3826 16.5858L27.7311 16.405C27.7276 16.3784 27.6968 14.8683 27.6688 14.2201C27.6485 13.7513 27.6078 13.0205 27.3809 12.2994C27.1105 11.324 26.6398 10.4712 26.0514 9.92532C27.6744 8.24285 28.6873 6.38871 28.6845 4.79874C28.6796 1.74073 24.9258 0.815062 20.2992 2.73157L19.3193 3.14781C19.3151 3.1436 17.5471 1.40858 17.5205 1.38546C12.246 -3.21697 -4.24635 15.1213 1.02672 19.5751L2.17898 20.552C1.87988 21.3263 1.76291 22.2141 1.85887 23.1685C1.98215 24.3941 2.61397 25.5692 3.63874 26.4774C4.61098 27.3393 5.89003 27.8852 7.13055 27.8837C9.1822 32.6144 13.8704 35.5162 19.3676 35.6794C25.2641 35.8546 30.2143 33.0867 32.2883 28.1143C32.4242 27.7653 33 26.1929 33 24.8047C33 23.4096 32.212 22.8315 31.7098 22.8315L31.7091 22.8322ZM7.58374 26.5552C7.40443 26.586 7.22161 26.5979 7.03738 26.5937C5.25611 26.546 3.33264 24.9421 3.14142 23.0396C2.92988 20.9374 4.00368 19.3187 5.90544 18.9354C6.13239 18.8898 6.40767 18.8632 6.70396 18.8786C7.76937 18.9368 9.3391 19.7552 9.69774 22.0768C10.015 24.1327 9.51071 26.2265 7.58374 26.5552ZM5.59513 17.6775C4.41135 17.9081 3.36837 18.5787 2.73024 19.5058C2.34919 19.1876 1.63822 18.5717 1.51284 18.332C0.494371 16.3973 2.62448 12.6358 4.11226 10.5118C7.78968 5.26193 13.5489 1.28876 16.2155 2.00911C16.6491 2.13174 18.0844 3.79669 18.0844 3.79669C18.0844 3.79669 15.4191 5.27594 12.9479 7.3382C9.61789 9.90359 7.10183 13.6315 5.59513 17.6775ZM24.2891 25.7689C24.3276 25.7528 24.3542 25.708 24.35 25.6645C24.3444 25.6106 24.2961 25.5713 24.2421 25.5769C24.2421 25.5769 21.4522 25.9904 18.8164 25.0248C19.1035 24.0914 19.867 24.4284 21.0207 24.5216C23.1004 24.6457 24.9643 24.3415 26.3414 23.9463C27.535 23.6037 29.1026 22.9282 30.3207 21.9667C30.7312 22.8693 30.8762 23.8622 30.8762 23.8622C30.8762 23.8622 31.1942 23.8055 31.4597 23.9687C31.7104 24.1236 31.8947 24.4445 31.7693 25.2756C31.5129 26.8277 30.8538 28.087 29.7457 29.246C29.0711 29.9726 28.2523 30.604 27.3151 31.063C26.8177 31.3244 26.2875 31.5507 25.7278 31.7336C21.5503 33.0986 17.2732 31.5976 15.8947 28.375C15.7848 28.1325 15.6916 27.8788 15.618 27.614C15.0304 25.49 15.5291 22.9422 17.0883 21.3382C17.1843 21.2359 17.2823 21.1154 17.2823 20.964C17.2823 20.8372 17.2018 20.704 17.1324 20.6094C16.5868 19.8183 14.6976 18.4694 15.0773 15.8591C15.3498 13.984 16.9888 12.6638 18.5173 12.7423L18.9046 12.7647C19.5665 12.8039 20.1444 12.8887 20.6901 12.9118C21.6028 12.9511 22.423 12.8187 23.3946 12.0086C23.7224 11.7353 23.9851 11.4985 24.4299 11.4228C24.4768 11.4151 24.5931 11.373 24.8249 11.3842C25.0624 11.3969 25.2879 11.462 25.4911 11.5973C26.27 12.1158 26.3806 13.3722 26.4213 14.2909C26.4444 14.8157 26.5074 16.0848 26.5291 16.4485C26.5789 17.2816 26.7974 17.3987 27.2401 17.5451C27.4895 17.6271 27.7206 17.6881 28.061 17.7841C29.0921 18.0735 29.7036 18.3678 30.0896 18.7448C30.3193 18.9809 30.4265 19.2311 30.4594 19.4707C30.5813 20.3586 29.7709 21.4545 27.6254 22.451C25.2802 23.5399 22.4356 23.8153 20.4701 23.5967L19.7816 23.5189C18.209 23.3072 17.3125 25.3401 18.256 26.7324C18.864 27.6301 20.5206 28.2138 22.1779 28.2145C25.9779 28.2152 28.8988 26.5916 29.9852 25.1894L30.0721 25.0654C30.1253 24.9848 30.0812 24.9407 30.0146 24.9862C29.1271 25.5937 25.1842 28.0064 20.9668 27.2804C20.9668 27.2804 20.454 27.1963 19.9868 27.0141C19.6149 26.8698 18.8374 26.5117 18.7428 25.7129C22.1463 26.7661 24.2891 25.7703 24.2891 25.7703V25.7689ZM18.8976 25.132L18.8983 25.1327L18.899 25.1341L18.8976 25.132ZM12.3868 10.4894C13.6939 8.97792 15.3035 7.66405 16.7451 6.92617C16.7948 6.90094 16.8481 6.9549 16.8207 7.00395C16.7066 7.21137 16.4859 7.65564 16.4159 7.99199C16.4047 8.04454 16.4621 8.08379 16.5062 8.05365C17.4028 7.44191 18.9634 6.78673 20.3321 6.70264C20.391 6.69913 20.419 6.77411 20.3728 6.81055C20.1647 6.97032 19.9371 7.19105 19.7711 7.41458C19.7431 7.45242 19.7697 7.50708 19.8166 7.50778C20.7776 7.51479 22.1323 7.85114 23.0149 8.34656C23.0745 8.3802 23.0324 8.49582 22.9652 8.4804C21.6294 8.17418 19.4426 7.94154 17.171 8.49582C15.1431 8.99054 13.5951 9.75434 12.466 10.5763C12.4092 10.6176 12.3406 10.5434 12.3868 10.4894Z" fill="black"/>
</svg>
