<svg width="116" height="33" viewBox="0 0 116 33" fill="none" xmlns="http://www.w3.org/2000/svg">
<g clip-path="url(#clip0_2_9178)">
<path d="M12.563 5.29492V14.3167H4.04249V5.29492H0V26.8311H4.04358V18.1021H12.5619V26.8311H16.6066V5.29492H12.563ZM29.5494 19.8703C29.5494 20.7335 29.1968 21.5614 28.5694 22.1717C27.9419 22.7821 27.0908 23.125 26.2034 23.125C25.316 23.125 24.465 22.7821 23.8375 22.1717C23.21 21.5614 22.8575 20.7335 22.8575 19.8703V10.6452H19.0218V19.8703C19.0218 21.7212 19.7777 23.4963 21.1232 24.8052C22.4686 26.114 24.2935 26.8492 26.1963 26.8492C28.0991 26.8492 29.924 26.114 31.2694 24.8052C32.6149 23.4963 33.3708 21.7212 33.3708 19.8703V10.6452H29.5494V19.8703ZM57.9705 11.5958C57.9705 9.70415 59.2563 9.10483 60.6647 9.10483C61.8006 9.10483 63.2999 9.94579 64.2815 10.9656L66.793 8.08502C65.5389 6.43502 62.9957 5.29492 60.9131 5.29492C56.7514 5.29492 53.7419 7.6656 53.7419 11.5958C53.7419 18.8877 62.9037 16.5735 62.9037 20.6548C62.9037 21.9131 61.6474 23.0244 60.2095 23.0244C57.9409 23.0244 57.2055 21.9461 56.1637 20.8049L53.3753 23.6248C55.1591 25.7539 57.3587 26.8354 59.9928 26.8354C63.9466 26.8354 67.1268 24.436 67.1268 20.6846C67.1268 12.5901 57.9639 15.1055 57.9639 11.5958M114.651 23.3906C112.384 23.3906 111.74 22.4368 111.74 20.9763V14.5094H115.264V11.2328H111.74V6.90979L107.85 8.6077V21.78C107.85 25.1492 110.24 26.8471 113.517 26.8471C114.031 26.8556 114.546 26.8152 115.051 26.7279L116 23.33C115.572 23.3587 115.081 23.3874 114.651 23.3874M44.15 10.7527C42.2503 10.7527 40.9239 11.2892 39.6414 12.5123V5.42373H35.8002V18.5631C35.8002 23.4811 39.4553 26.8514 43.5635 26.8514C48.1203 26.8514 52.1289 23.4215 52.1289 18.8036C52.1289 14.2432 48.4398 10.7559 44.15 10.7559M44.126 23.0904C43.5535 23.0904 42.9866 22.9808 42.4577 22.7676C41.9288 22.5545 41.4483 22.2422 41.0435 21.8484C40.6387 21.4547 40.3176 20.9872 40.0985 20.4727C39.8794 19.9582 39.7667 19.4068 39.7667 18.8499C39.7667 18.2931 39.8794 17.7416 40.0985 17.2272C40.3176 16.7127 40.6387 16.2452 41.0435 15.8515C41.4483 15.4577 41.9288 15.1453 42.4577 14.9322C42.9866 14.7191 43.5535 14.6094 44.126 14.6094C45.2821 14.6094 46.3909 15.0562 47.2085 15.8515C48.026 16.6467 48.4853 17.7253 48.4853 18.8499C48.4853 19.9746 48.026 21.0532 47.2085 21.8484C46.3909 22.6437 45.2821 23.0904 44.126 23.0904ZM85.8663 18.6078C85.8663 13.9814 81.8665 10.56 77.3009 10.56C73.1938 10.56 69.5376 13.9292 69.5376 18.8483V31.9951H73.3788V24.8969C74.6591 26.1179 75.9877 26.6566 77.8852 26.6566C82.1751 26.6566 85.8663 23.1692 85.8663 18.6078ZM82.2287 18.5609C82.2287 19.6856 81.7694 20.7642 80.9519 21.5594C80.1343 22.3547 79.0255 22.8014 77.8694 22.8014C76.7132 22.8014 75.6044 22.3547 74.7869 21.5594C73.9694 20.7642 73.5101 19.6856 73.5101 18.5609C73.5101 17.4363 73.9694 16.3577 74.7869 15.5624C75.6044 14.7672 76.7132 14.3204 77.8694 14.3204C79.0255 14.3204 80.1343 14.7672 80.9519 15.5624C81.7694 16.3577 82.2287 17.4363 82.2287 18.5609Z" fill="#33475B"/>
<path d="M98.2791 10.3792V6.62466C98.7891 6.39277 99.221 6.02474 99.5244 5.5634C99.8277 5.10206 99.9902 4.56638 99.9928 4.01872V3.9325C99.9928 2.33572 98.6621 1.04127 97.0206 1.04127H96.9319C96.1436 1.04127 95.3876 1.34588 94.8302 1.88809C94.2728 2.4303 93.9597 3.1657 93.9597 3.9325V4.01872C93.9623 4.56638 94.1247 5.10206 94.4281 5.5634C94.7315 6.02474 95.1634 6.39277 95.6734 6.62466V10.3792C94.2075 10.5975 92.8269 11.1888 91.6714 12.0931L81.0859 4.07301C81.1614 3.80795 81.2008 3.53543 81.2052 3.26185C81.2065 2.61751 81.0113 1.98726 80.6443 1.45083C80.2773 0.914407 79.7551 0.4959 79.1435 0.24825C78.532 0.000599488 77.8587 -0.0650682 77.2088 0.0595531C76.5589 0.184174 75.9616 0.493486 75.4925 0.948363C75.0233 1.40324 74.7034 1.98325 74.5732 2.61502C74.4429 3.24679 74.5083 3.90194 74.7608 4.4976C75.0134 5.09326 75.4419 5.60267 75.9922 5.96139C76.5424 6.32012 77.1897 6.51204 77.8521 6.51288C78.4316 6.51023 79.0003 6.35974 79.5013 6.07643L89.9249 13.9666C88.9885 15.3427 88.5 16.9612 88.523 18.6113C88.546 20.2614 89.0795 21.8664 90.054 23.2173L86.8837 26.3022C86.6274 26.2225 86.3604 26.1802 86.0914 26.1766C85.5477 26.177 85.0163 26.3342 84.5644 26.6284C84.1124 26.9225 83.7603 27.3403 83.5524 27.829C83.3446 28.3177 83.2903 28.8554 83.3965 29.3742C83.5026 29.8929 83.7645 30.3694 84.149 30.7434C84.5335 31.1173 85.0233 31.3721 85.5565 31.4754C86.0898 31.5787 86.6426 31.5259 87.145 31.3237C87.6474 31.1214 88.0769 30.7789 88.3793 30.3393C88.6816 29.8997 88.8432 29.3828 88.8437 28.8539C88.8401 28.5922 88.7966 28.3324 88.7145 28.0832L91.8509 25.0312C92.8737 25.7971 94.0631 26.3252 95.328 26.5749C96.593 26.8246 97.8999 26.7893 99.1487 26.4718C100.397 26.1543 101.555 25.5629 102.532 24.743C103.51 23.9231 104.282 22.8965 104.788 21.7417C105.295 20.5869 105.523 19.3346 105.455 18.0808C105.388 16.827 105.026 15.6049 104.397 14.5081C103.769 13.4113 102.891 12.469 101.831 11.7534C100.77 11.0377 99.5552 10.5676 98.2791 10.3792ZM96.979 22.7276C96.3993 22.7431 95.8224 22.6454 95.2822 22.4404C94.742 22.2353 94.2496 21.927 93.834 21.5337C93.4183 21.1404 93.088 20.67 92.8624 20.1504C92.6368 19.6308 92.5206 19.0724 92.5206 18.5084C92.5206 17.9443 92.6368 17.386 92.8624 16.8664C93.088 16.3468 93.4183 15.8764 93.834 15.4831C94.2496 15.0897 94.742 14.7814 95.2822 14.5764C95.8224 14.3713 96.3993 14.2737 96.979 14.2892C98.1024 14.3274 99.1667 14.7883 99.9478 15.5748C100.729 16.3612 101.166 17.4118 101.166 18.5053C101.167 19.5987 100.731 20.6498 99.9508 21.437C99.1706 22.2242 98.1067 22.6861 96.9834 22.7255" fill="#FF7A59"/>
</g>
<defs>
<clipPath id="clip0_2_9178">
<rect width="116" height="33" fill="white"/>
</clipPath>
</defs>
</svg>
