<svg width="37" height="36" viewBox="0 0 37 36" fill="none" xmlns="http://www.w3.org/2000/svg">
<path d="M7.5637 22.7497C7.5637 24.8312 5.86333 26.5316 3.78185 26.5316C1.70037 26.5316 0 24.8312 0 22.7497C0 20.6683 1.70037 18.9679 3.78185 18.9679H7.5637V22.7497Z" fill="#E01E5A"/>
<path d="M9.46875 22.7497C9.46875 20.6683 11.1691 18.9679 13.2506 18.9679C15.3321 18.9679 17.0324 20.6683 17.0324 22.7497V32.219C17.0324 34.3005 15.3321 36.0009 13.2506 36.0009C11.1691 36.0009 9.46875 34.3005 9.46875 32.219V22.7497Z" fill="#E01E5A"/>
<path d="M13.2506 7.5637C11.1691 7.5637 9.46875 5.86333 9.46875 3.78185C9.46875 1.70037 11.1691 0 13.2506 0C15.3321 0 17.0324 1.70037 17.0324 3.78185V7.5637H13.2506Z" fill="#36C5F0"/>
<path d="M13.2511 9.46875C15.3326 9.46875 17.033 11.1691 17.033 13.2506C17.033 15.3321 15.3326 17.0324 13.2511 17.0324H3.78185C1.70037 17.0324 0 15.3321 0 13.2506C0 11.1691 1.70037 9.46875 3.78185 9.46875H13.2511Z" fill="#36C5F0"/>
<path d="M28.4375 13.2506C28.4375 11.1691 30.1379 9.46875 32.2193 9.46875C34.3008 9.46875 36.0012 11.1691 36.0012 13.2506C36.0012 15.3321 34.3008 17.0324 32.2193 17.0324H28.4375V13.2506Z" fill="#2EB67D"/>
<path d="M26.5325 13.2511C26.5325 15.3326 24.8321 17.033 22.7506 17.033C20.6691 17.033 18.9688 15.3326 18.9688 13.2511V3.78185C18.9688 1.70037 20.6691 0 22.7506 0C24.8321 0 26.5325 1.70037 26.5325 3.78185V13.2511Z" fill="#2EB67D"/>
<path d="M22.7506 28.4365C24.8321 28.4365 26.5325 30.1369 26.5325 32.2184C26.5325 34.2999 24.8321 36.0002 22.7506 36.0002C20.6691 36.0002 18.9688 34.2999 18.9688 32.2184V28.4365H22.7506Z" fill="#ECB22E"/>
<path d="M22.7506 26.5315C20.6691 26.5315 18.9688 24.8311 18.9688 22.7496C18.9688 20.6681 20.6691 18.9678 22.7506 18.9678H32.2199C34.3014 18.9678 36.0017 20.6681 36.0017 22.7496C36.0017 24.8311 34.3014 26.5315 32.2199 26.5315H22.7506Z" fill="#ECB22E"/>
</svg>
