<svg width="36" height="36" viewBox="0 0 36 36" fill="none" xmlns="http://www.w3.org/2000/svg">
<g clip-path="url(#clip0_2_9117)">
<path fill-rule="evenodd" clip-rule="evenodd" d="M31.7438 0H4.25616C1.89163 0 0 1.89163 0 4.25616V31.6847C0 34.0493 1.89163 35.9409 4.25616 35.9409H31.6847C34.0493 35.9409 35.9409 34.0493 35.9409 31.6847V4.31527C36 1.89163 34.1084 0 31.7438 0ZM15.4877 25.9507C15.4877 26.7192 14.8374 27.3695 14.069 27.3695H8.09852C7.33005 27.3695 6.6798 26.7192 6.6798 25.9507V8.09852C6.6798 7.33005 7.33005 6.6798 8.09852 6.6798H14.1281C14.8966 6.6798 15.5468 7.33005 15.5468 8.09852V25.9507H15.4877ZM29.3793 17.734C29.3793 18.5025 28.7882 19.1527 27.9606 19.2118C27.9606 19.2118 27.9606 19.2118 27.9015 19.2118H21.931C21.1626 19.2118 20.5123 18.5616 20.5123 17.7931V8.09852C20.5123 7.33005 21.1626 6.6798 21.931 6.6798H27.9606C28.7291 6.6798 29.3793 7.33005 29.3793 8.09852V17.734Z" fill="url(#paint0_linear_2_9117)"/>
</g>
<defs>
<linearGradient id="paint0_linear_2_9117" x1="18.0118" y1="36.0236" x2="18.0118" y2="0" gradientUnits="userSpaceOnUse">
<stop stop-color="#0052CC"/>
<stop offset="1" stop-color="#2684FF"/>
</linearGradient>
<clipPath id="clip0_2_9117">
<rect width="36" height="36" fill="white"/>
</clipPath>
</defs>
</svg>
