<svg width="91" height="20" viewBox="0 0 91 20" fill="none" xmlns="http://www.w3.org/2000/svg">
<path d="M19.0826 19.6923H2.90214C1.82875 19.6923 0.834862 19.1538 0.318043 18.2308C-0.238532 17.1538 -0.0397554 15.8846 0.834862 15.0769L12.0856 4.19231H4.01529C1.78899 4.19231 0 2.42308 0 0.307692H14.9083C15.9817 0.307692 16.9755 0.846154 17.4924 1.76923C18.0489 2.84615 17.8502 4.11538 16.9755 4.92308L5.72477 15.8077H15.0673C17.2936 15.8077 19.0826 17.5769 19.0826 19.6923ZM83.1682 0C80.8624 0 78.7554 0.961538 77.3242 2.53846C75.893 1 73.7859 0 71.4801 0C67.1865 0 63.6483 3.53846 63.6483 7.69231V19.6923C65.8746 19.6923 67.6636 17.9615 67.6636 15.8077V7.65385C67.6636 5.65385 69.2538 3.96154 71.3211 3.88462C73.5076 3.80769 75.2966 5.5 75.2966 7.57692V15.8077C75.2966 17.9615 77.0856 19.6923 79.3119 19.6923V7.65385C79.3119 5.65385 80.9021 3.96154 82.9694 3.88462C85.156 3.80769 86.945 5.5 86.945 7.57692V15.8077C86.945 17.9615 88.7339 19.6923 90.9603 19.6923V7.69231C91 3.53846 87.4618 0 83.1682 0ZM39.3578 10C39.3578 15.5 34.7064 20 29.0214 20C23.2966 20 18.685 15.5 18.685 10C18.685 4.5 23.3364 0 29.0214 0C34.7064 0 39.3578 4.5 39.3578 10ZM35.3425 10C35.3425 6.61538 32.5199 3.88462 29.0214 3.88462C25.5229 3.88462 22.7003 6.61538 22.7003 10C22.7003 13.3846 25.5229 16.1154 29.0214 16.1154C32.5199 16.1154 35.3425 13.3846 35.3425 10ZM61.6606 10C61.6606 15.5 57.0092 20 51.3242 20C45.5994 20 40.9878 15.5 40.9878 10C40.9878 4.5 45.6391 0 51.3242 0C57.0092 0 61.6606 4.5 61.6606 10ZM57.6453 10C57.6453 6.61538 54.8226 3.88462 51.3242 3.88462C47.8257 3.88462 45.0031 6.61538 45.0031 10C45.0031 13.3846 47.8257 16.1154 51.3242 16.1154C54.8226 16.1154 57.6453 13.3846 57.6453 10Z" fill="#0B5CFF"/>
</svg>
